<?xml version="1.0" encoding="UTF-8" standalone="no"?>
<!-- Uploaded to: SVG Repo, www.svgrepo.com, Generator: SVG Repo Mixer Tools -->

<svg
   height="585.69"
   width="1200"
   version="1.1"
   id="Capa_1"
   viewBox="0 0 83.999999 40.9983"
   xml:space="preserve"
   sodipodi:docname="tabel.svg"
   inkscape:version="1.3.2 (091e20e, 2023-11-25)"
   xmlns:inkscape="http://www.inkscape.org/namespaces/inkscape"
   xmlns:sodipodi="http://sodipodi.sourceforge.net/DTD/sodipodi-0.dtd"
   xmlns="http://www.w3.org/2000/svg"
   xmlns:svg="http://www.w3.org/2000/svg"><defs
   id="defs6" /><sodipodi:namedview
   id="namedview6"
   pagecolor="#ffffff"
   bordercolor="#000000"
   borderopacity="0.25"
   inkscape:showpageshadow="2"
   inkscape:pageopacity="0.0"
   inkscape:pagecheckerboard="0"
   inkscape:deskcolor="#d1d1d1"
   inkscape:zoom="0.75125"
   inkscape:cx="306.82196"
   inkscape:cy="400"
   inkscape:window-width="2400"
   inkscape:window-height="1212"
   inkscape:window-x="162"
   inkscape:window-y="59"
   inkscape:window-maximized="0"
   inkscape:current-layer="g6" />
<g
   id="g6"
   transform="translate(-6.5)">
	<path
   style="fill:#e9e9e0;stroke-width:0.855636"
   d="M 56.165,0 H 27.143 C 26.335,0 25.68,0.47953411 25.68,1.4100499 V 40.266223 c 0,0.252579 0.655,0.732113 1.463,0.732113 h 40.074 c 0.808,0 1.463,-0.479534 1.463,-0.732113 V 9.5013644 c 0,-0.5095508 -0.093,-0.6735441 -0.257,-0.7943428 L 56.787,0.18815308 C 56.622,0.06808652 56.398,0 56.165,0 Z"
   id="path1" />
	<polygon
   style="fill:#d9d7ca"
   points="49.349,12 37.5,0.151 37.5,12 "
   id="polygon1"
   transform="translate(19.18)" />
	
	
	<path
   style="fill:#c8bdb8"
   d="m 42.68,16 v -4 h -12 v 4 2 2 2 2 2 2 2 4 h 10 2 21 v -4 -2 -2 -2 -2 -2 -4 z m -10,-2 h 8 v 2 h -8 z m 0,4 h 8 v 2 h -8 z m 0,4 h 8 v 2 h -8 z m 0,4 h 8 v 2 h -8 z m 8,6 h -8 v -2 h 8 z m 21,0 h -19 v -2 h 19 z m 0,-4 h -19 v -2 h 19 z m 0,-4 h -19 v -2 h 19 z m -19,-4 v -2 h 19 v 2 z"
   id="path6" />
</g>
</svg>
